P3
# Created by IrfanView
64 64
255
64 76 24 58 70 23 55 66 20 51 62 20 56 70 23 
64 75 25 62 73 23 61 73 21 54 65 19 57 70 20 
55 66 21 56 72 21 58 72 22 54 65 20 57 71 21 
58 70 20 58 70 20 59 73 21 54 67 20 56 68 20 
63 77 21 63 74 23 65 77 26 59 71 21 59 71 23 
56 69 24 56 67 20 56 68 19 56 69 21 61 73 22 
56 70 19 55 67 19 56 69 21 57 71 21 54 65 19 
55 68 21 64 76 24 52 63 19 57 69 21 69 81 29 
56 67 20 61 75 23 60 72 21 60 74 22 67 79 29 
59 70 22 58 72 21 59 70 23 58 72 20 70 82 28 
59 73 24 54 64 21 60 71 24 65 79 25 55 67 21 
55 65 21 63 74 24 61 71 24 57 71 21 55 68 23 
62 76 23 58 69 22 52 63 20 61 73 23 60 71 24 
64 75 26 43 56 13 51 62 17 72 85 32 58 69 20 
61 72 23 57 70 25 50 60 20 58 72 20 64 77 22 
53 66 20 59 70 25 47 58 21 58 69 21 53 67 21 
54 67 21 56 66 19 65 76 24 70 82 30 57 72 22 
46 55 17 66 76 26 60 75 23 65 74 30 48 59 18 
50 64 19 58 73 21 43 53 14 78 90 33 53 64 18 
57 69 24 71 83 25 65 84 27 49 57 19 62 76 24 
50 60 19 60 73 23 52 64 16 74 86 31 52 64 18 
59 75 20 51 61 17 78 90 35 56 70 19 64 74 27 
58 74 22 52 64 20 56 67 25 73 81 32 47 59 19 
53 64 18 45 56 15 60 80 25 55 67 22 46 56 17 
52 58 21 53 63 20 61 77 19 65 76 24 52 62 18 
70 86 28 50 61 20 60 71 25 61 72 25 78 91 32 
56 63 27 64 73 27 59 66 28 54 65 16 52 63 18 
70 82 29 51 61 21 67 75 27 54 68 17 50 60 18 
53 67 18 43 54 12 61 73 21 51 61 18 53 66 19 
50 65 18 62 80 19 56 68 14 55 71 20 58 75 20 
61 72 25 61 76 22 68 81 26 49 59 18 50 65 19 
69 84 23 51 62 19 66 76 27 59 72 21 57 70 19 
62 73 23 75 97 30 62 73 20 65 81 23 50 60 19 
45 52 13 52 65 18 56 69 18 57 69 18 47 53 14 
77 89 33 57 68 22 39 47 13 51 63 16 53 60 19 
64 77 22 50 60 18 48 61 16 64 79 23 60 73 21 
48 58 16 49 60 11 64 73 28 81 90 36 49 59 18 
51 68 18 53 66 22 43 52 15 56 72 20 53 66 18 
48 60 14 62 73 25 59 72 22 60 71 22 42 55 10 
63 75 24 58 70 21 56 66 22 46 56 16 57 73 17 
48 62 16 66 81 26 54 69 19 73 84 33 61 67 25 
72 84 28 58 67 24 56 69 18 67 82 27 66 80 24 
50 58 17 57 67 19 65 76 26 51 61 17 65 81 21 
62 77 22 59 68 19 60 72 27 56 70 22 51 60 16 
57 69 23 68 79 25 47 60 17 45 55 15 44 53 14 
61 69 27 64 70 26 63 76 22 52 66 19 55 66 21 
72 84 29 54 68 23 53 65 21 68 80 29 65 76 25 
54 71 21 78 93 31 56 66 21 51 62 17 57 68 20 
61 72 20 53 69 16 81 86 42 71 85 31 54 68 16 
66 79 26 77 84 44 62 75 19 51 67 18 58 73 19 
52 61 16 49 58 17 65 78 26 64 79 24 51 64 17 
56 70 20 54 65 19 51 63 16 48 59 12 61 76 23 
51 63 18 54 67 22 51 67 18 77 89 32 69 77 34 
65 80 24 56 70 17 59 69 22 54 66 16 62 79 22 
55 70 20 56 68 23 63 78 27 59 69 22 60 70 21 
61 71 24 63 75 24 53 65 19 72 86 29 73 93 25 
54 62 23 57 69 21 48 58 17 70 85 30 52 66 19 
72 89 28 54 70 17 76 88 32 52 68 18 81 95 36 
64 71 30 59 69 25 62 72 25 44 54 15 47 57 16 
50 60 15 42 52 12 60 77 19 52 67 14 54 69 17 
55 65 22 53 69 23 57 68 21 62 74 27 67 84 27 
60 75 19 56 71 27 68 82 26 58 68 22 55 67 16 
49 59 17 64 76 25 65 75 28 49 62 17 62 84 26 
48 61 17 61 71 26 64 73 26 44 67 17 55 68 22 
59 70 22 56 68 19 72 87 29 48 60 16 57 67 21 
69 83 25 49 62 17 67 79 24 63 70 27 62 76 25 
54 73 16 56 67 20 55 64 22 79 97 29 67 76 28 
55 66 19 55 65 17 49 56 17 57 72 17 57 74 22 
51 61 16 59 75 21 68 79 27 73 84 33 64 77 27 
56 69 22 63 78 23 55 66 20 49 59 16 73 86 33 
58 68 27 44 54 14 58 67 24 74 89 31 61 76 22 
52 61 16 45 59 14 53 63 19 64 80 22 72 80 35 
66 76 30 84 97 37 76 91 36 54 64 16 46 57 15 
54 64 15 54 66 16 53 63 18 71 80 31 60 80 25 
55 66 20 52 68 18 53 68 15 84 95 46 55 69 18 
51 62 17 56 66 17 62 73 20 60 75 18 49 62 16 
56 67 18 52 66 17 53 71 15 58 73 20 57 71 19 
62 77 22 56 68 19 52 62 21 51 61 18 62 72 21 
53 63 21 66 82 25 52 63 19 53 63 18 56 71 19 
56 65 22 63 78 30 61 75 25 64 76 22 60 75 21 
51 62 19 51 63 19 60 71 20 48 63 17 71 79 32 
56 64 22 45 55 15 52 65 22 54 67 17 73 90 29 
66 80 29 41 48 15 49 60 18 48 58 15 61 73 21 
56 68 16 52 62 19 49 61 13 57 75 20 49 61 20 
66 86 25 69 78 33 80 89 38 78 81 44 50 60 20 
51 67 15 58 71 24 55 64 18 52 63 19 69 79 34 
58 74 16 60 76 23 53 62 15 54 70 16 59 67 23 
50 66 19 51 60 18 57 75 20 53 68 18 55 66 20 
47 54 18 48 59 16 48 58 17 62 74 21 50 59 19 
51 59 18 59 74 21 62 76 24 65 77 25 52 66 17 
67 82 23 49 61 16 52 63 17 52 61 16 48 59 16 
38 51 12 65 76 28 43 51 19 59 78 20 53 67 16 
64 73 23 55 67 22 66 89 25 57 68 22 59 70 23 
57 69 20 61 79 26 69 80 30 71 89 32 53 69 21 
56 66 22 57 73 21 69 77 28 64 81 24 59 69 24 
52 65 17 53 63 18 57 69 17 51 64 21 80 91 37 
71 85 32 55 66 18 48 57 21 55 69 18 68 85 30 
47 57 15 51 64 18 55 72 21 54 67 12 52 65 21 
69 87 27 48 58 17 51 65 18 66 76 32 55 65 20 
52 66 19 52 62 20 53 64 20 57 69 20 51 63 17 
53 68 20 63 74 22 36 46 13 60 72 23 55 68 21 
56 64 20 48 58 18 51 62 19 48 57 16 53 65 20 
53 68 20 60 71 26 58 69 20 49 60 19 55 70 20 
54 65 18 44 54 13 49 57 19 61 68 29 70 78 31 
54 66 20 49 61 19 55 65 18 53 66 16 69 78 27 
55 71 21 55 73 18 57 70 18 54 64 18 55 67 18 
56 66 23 54 64 16 54 66 20 60 72 21 60 72 21 
57 71 20 63 75 28 53 70 14 51 67 17 57 70 19 
56 67 20 62 77 23 54 71 16 60 77 23 59 70 22 
60 68 20 51 63 19 67 84 21 60 71 22 69 78 29 
51 61 23 52 62 18 67 77 26 70 89 31 54 66 20 
57 66 20 46 56 15 48 61 18 48 58 14 54 68 20 
53 58 19 68 77 31 57 73 22 55 65 19 49 61 16 
80 91 35 51 65 18 53 66 21 53 65 17 56 67 20 
52 63 16 53 64 20 53 66 18 57 69 21 60 70 20 
57 69 22 61 73 22 58 73 21 61 75 21 57 72 19 
65 81 21 57 66 21 58 66 23 66 73 29 49 60 16 
55 65 22 54 66 19 57 69 22 74 90 31 56 69 18 
58 69 23 56 64 25 64 79 24 65 77 26 54 68 23 
61 76 25 51 61 19 58 70 22 67 76 27 63 78 27 
64 73 25 52 60 18 59 71 23 54 65 19 57 67 20 
78 95 36 66 76 26 56 68 19 64 78 27 52 62 20 
54 70 19 53 68 15 84 95 43 57 72 18 56 68 20 
56 67 22 66 78 22 61 74 25 62 86 26 62 77 23 
47 57 18 54 65 18 56 68 18 76 85 43 52 67 19 
51 63 19 58 74 19 60 70 21 41 48 16 63 86 26 
55 71 21 60 75 20 54 69 19 63 77 22 54 64 18 
49 61 20 54 64 21 62 76 24 60 75 20 53 64 19 
60 70 22 56 73 21 51 69 21 59 71 23 57 72 21 
56 72 19 58 69 20 51 63 18 53 65 17 59 71 19 
51 64 17 53 62 19 54 76 22 49 67 19 70 93 34 
54 67 25 47 63 16 62 76 24 58 70 20 73 88 25 
59 73 29 57 68 24 66 79 28 56 76 28 51 60 19 
44 54 18 53 66 21 49 57 17 49 62 18 65 84 23 
57 71 19 56 71 18 61 72 21 57 68 21 60 71 21 
54 64 18 73 86 25 61 79 20 43 53 13 59 69 26 
57 67 21 66 78 27 60 71 19 56 71 17 57 74 17 
53 63 20 48 62 18 60 70 24 54 65 18 57 69 18 
56 71 16 61 73 22 50 60 15 54 64 21 54 63 20 
71 85 29 56 71 23 53 66 20 57 72 18 58 72 23 
50 63 22 54 70 21 63 77 21 58 69 22 53 65 19 
61 77 23 53 68 17 47 57 17 63 78 23 53 62 15 
56 68 21 63 79 28 58 71 22 53 71 17 62 79 24 
65 80 25 62 68 28 64 74 22 70 80 23 46 52 15 
49 59 17 60 74 21 43 47 15 62 80 19 52 63 18 
48 55 19 61 73 21 53 67 15 67 81 26 55 69 22 
68 84 27 45 52 17 55 70 17 58 73 19 58 67 21 
57 72 25 56 72 20 69 84 27 60 76 22 49 61 15 
52 64 17 60 72 21 59 71 21 55 65 14 73 86 29 
88 95 43 71 80 35 53 65 22 67 82 23 49 63 20 
51 61 15 58 73 18 62 74 21 62 77 22 45 55 17 
78 90 39 48 60 19 73 84 37 66 78 28 49 59 16 
57 70 19 54 69 16 51 66 16 69 80 23 48 57 15 
53 72 19 55 73 21 55 68 20 56 68 20 51 58 22 
58 68 18 54 63 22 55 70 22 54 67 16 61 77 23 
62 74 20 64 74 26 53 68 22 60 69 21 50 60 16 
66 79 29 61 74 24 61 82 34 52 65 22 53 69 21 
56 67 25 54 64 19 52 62 17 52 62 17 52 62 15 
65 82 24 52 65 19 61 76 22 48 61 18 53 66 18 
56 72 19 61 76 21 56 66 21 47 55 17 53 63 19 
53 66 18 58 70 22 50 56 20 55 70 17 51 61 20 
56 66 21 57 70 23 45 57 15 66 85 26 53 69 15 
57 75 18 53 66 20 56 72 15 56 61 25 49 59 17 
61 76 21 44 57 14 51 66 15 55 68 24 50 61 13 
51 66 16 59 75 16 61 76 20 48 58 19 65 77 23 
49 59 21 54 64 19 60 74 22 47 58 19 60 78 21 
55 69 20 56 67 21 57 69 23 47 57 18 44 58 13 
51 60 19 53 64 17 55 68 21 47 57 20 48 58 17 
62 74 24 48 59 20 49 58 18 49 61 16 57 72 18 
60 73 19 55 67 19 55 64 19 54 67 20 58 69 19 
62 73 23 50 63 16 71 85 30 71 93 28 67 80 31 
70 80 32 54 64 18 66 77 22 62 73 26 54 64 20 
60 74 23 59 71 19 65 79 23 60 75 21 58 71 22 
50 59 20 58 68 24 50 67 21 54 63 19 53 67 19 
51 65 15 67 81 22 54 63 20 52 60 18 67 79 25 
49 59 19 58 74 19 51 58 18 59 70 23 62 79 26 
65 78 28 68 83 30 58 70 21 51 61 16 58 73 16 
62 77 22 53 66 16 57 72 19 63 72 24 54 66 18 
67 80 27 59 69 23 63 72 26 61 76 20 50 60 16 
50 61 19 55 69 19 57 71 17 65 80 21 61 76 17 
55 71 16 52 63 16 51 61 14 54 66 20 52 63 18 
47 52 18 65 73 32 62 74 26 54 69 17 68 81 26 
55 65 20 61 73 25 59 72 23 53 66 19 52 62 17 
48 58 17 51 60 17 66 80 27 48 57 18 56 69 19 
46 60 18 55 71 19 58 74 19 52 64 17 59 69 21 
50 60 19 47 57 16 55 69 21 58 74 23 53 63 19 
53 68 21 63 81 23 61 72 22 57 72 18 63 77 26 
57 72 19 65 79 24 53 60 21 50 57 15 48 60 17 
66 82 22 54 64 19 42 49 15 50 58 18 59 75 20 
39 45 13 47 57 17 74 85 27 62 77 25 51 61 16 
47 57 12 68 84 29 45 57 13 54 68 20 65 82 22 
63 74 25 54 70 17 38 45 13 57 69 19 54 65 20 
58 72 20 54 67 16 48 61 18 50 60 16 49 59 17 
55 66 16 54 71 15 71 85 33 62 75 25 55 66 20 
51 62 17 68 82 23 59 73 23 50 60 19 52 62 19 
54 69 17 49 58 15 69 81 23 63 73 23 48 65 19 
56 68 21 67 80 26 68 83 30 37 45 11 61 71 25 
48 54 17 83 92 43 61 76 24 56 69 20 53 65 18 
54 64 20 53 63 18 59 70 18 50 61 16 47 58 18 
55 70 14 66 77 24 72 81 31 56 67 20 54 69 19 
62 74 21 55 67 22 56 68 19 60 77 22 68 80 26 
56 66 24 52 66 21 53 67 19 59 69 23 50 60 18 
49 63 18 59 73 19 55 68 18 51 62 18 61 73 22 
61 73 21 53 63 19 54 64 17 67 81 29 50 60 17 
55 69 20 56 72 21 48 59 16 51 62 20 50 61 19 
58 72 23 56 70 24 53 63 18 63 75 24 76 93 29 
59 74 21 54 66 18 63 71 27 57 73 21 49 65 14 
48 58 18 52 62 17 47 57 18 53 70 20 52 66 18 
59 72 22 59 77 19 59 71 19 53 78 21 51 67 19 
75 84 38 53 71 19 60 75 24 60 70 23 46 59 17 
61 76 20 72 84 35 56 70 20 48 68 19 54 63 21 
56 68 21 51 65 20 54 69 18 53 63 20 55 69 17 
55 69 16 53 68 18 45 61 16 52 68 17 56 70 22 
53 62 19 61 79 26 47 60 14 55 64 24 50 60 14 
54 64 19 58 71 22 54 67 21 52 64 17 58 72 20 
56 68 20 57 73 20 47 58 16 53 63 20 59 73 21 
60 74 21 47 57 15 54 64 18 42 53 14 52 62 19 
47 58 14 63 79 23 60 71 23 53 64 21 54 64 17 
60 77 20 50 63 17 45 50 14 55 73 17 48 56 17 
52 63 18 51 61 14 58 72 21 52 61 18 66 81 26 
54 70 18 52 62 17 67 81 25 54 66 18 50 62 18 
61 76 22 57 67 16 58 73 18 52 69 16 67 78 23 
52 66 18 46 58 17 56 71 19 45 59 20 70 94 25 
62 76 22 47 59 19 64 85 20 62 76 22 52 62 19 
50 63 17 54 66 19 49 65 17 62 71 23 68 87 30 
52 67 19 63 74 23 69 79 31 57 67 19 61 76 21 
48 59 16 58 73 23 56 72 25 53 63 18 54 69 18 
60 73 26 56 71 17 60 69 21 56 69 23 50 59 17 
61 79 21 49 61 15 52 64 20 56 65 17 54 66 21 
54 69 20 48 63 21 47 62 16 61 71 20 53 66 20 
64 81 20 59 71 20 54 65 21 65 77 26 79 95 39 
46 64 15 52 64 21 55 73 18 58 70 21 67 87 25 
65 79 23 59 70 20 55 68 21 47 60 16 54 67 21 
64 78 27 50 61 16 58 69 19 48 56 19 57 72 22 
54 69 18 50 59 16 55 68 22 64 75 25 45 55 13 
50 59 18 64 80 22 55 66 16 58 72 20 50 62 19 
56 70 16 48 61 15 53 62 18 54 69 18 64 75 21 
69 80 27 49 59 17 66 80 21 59 72 18 57 69 22 
56 66 18 45 57 13 53 63 17 51 61 19 62 73 20 
78 89 32 70 85 28 68 79 27 69 80 26 57 71 20 
52 66 16 66 86 24 58 73 20 41 47 15 62 78 27 
54 75 25 49 69 21 52 64 19 64 76 26 52 59 20 
64 71 32 60 70 19 58 77 20 60 73 22 52 63 15 
56 69 17 56 67 23 53 63 21 64 69 24 50 67 19 
51 70 17 54 68 18 65 77 25 63 82 23 70 83 29 
60 71 22 55 68 18 55 66 18 67 84 19 57 69 17 
39 49 13 46 56 11 48 58 15 51 66 14 55 66 18 
52 64 19 63 81 20 75 87 36 64 78 23 71 83 31 
69 86 24 49 61 17 59 76 24 60 70 24 52 65 18 
54 64 16 62 77 22 56 72 18 64 80 22 57 72 18 
46 56 16 56 68 20 52 62 19 65 77 23 56 68 17 
55 63 25 61 76 25 55 67 18 55 67 19 59 81 24 
58 75 17 49 62 16 52 68 15 53 69 19 69 83 30 
70 84 27 52 66 18 63 82 24 52 65 17 66 80 19 
56 68 15 52 65 20 60 69 28 48 55 16 52 68 17 
57 73 17 48 58 16 47 57 16 53 66 20 54 66 19 
55 68 20 47 62 16 49 62 16 62 76 18 56 68 18 
50 67 15 43 54 15 61 75 18 57 72 19 57 74 18 
58 75 17 53 66 16 53 67 21 70 85 27 66 81 26 
68 80 30 76 95 36 54 67 21 50 61 19 66 78 25 
43 53 16 56 66 19 66 74 27 71 79 33 69 80 27 
65 79 23 72 91 25 56 72 25 53 62 19 57 69 22 
54 66 20 54 64 18 56 65 19 50 66 15 48 61 14 
59 70 20 49 59 17 57 72 18 64 83 21 57 68 21 
53 65 18 70 87 25 61 76 24 57 60 26 56 68 16 
48 58 19 70 82 30 72 80 33 57 66 19 54 65 18 
59 70 20 63 74 27 48 58 16 48 60 16 51 64 21 
63 81 24 49 60 18 52 62 19 61 80 20 47 58 21 
58 68 22 60 79 24 49 59 15 55 66 20 57 70 20 
52 62 18 58 73 18 52 67 16 49 62 20 63 81 25 
70 79 35 67 81 31 62 75 24 50 63 19 55 64 21 
75 86 31 70 82 35 55 66 19 55 71 18 47 57 16 
54 66 18 58 70 18 55 62 21 51 62 18 53 63 18 
56 70 21 60 74 21 48 61 16 49 59 14 47 59 15 
70 84 30 49 61 23 70 85 22 61 73 20 42 50 14 
56 68 19 57 70 21 50 62 16 62 73 21 72 86 29 
45 55 16 56 65 22 52 67 15 55 68 21 54 65 22 
67 79 25 50 62 24 74 84 36 56 68 23 55 65 18 
43 55 12 56 68 16 47 59 16 56 72 19 59 69 23 
52 65 17 59 71 18 53 61 20 64 76 22 66 78 25 
62 73 23 49 60 16 65 78 25 40 49 14 54 70 19 
71 84 34 56 70 16 49 60 18 60 73 22 62 71 27 
48 61 18 57 67 20 66 78 23 51 67 15 49 61 16 
55 65 23 50 61 18 56 66 19 51 63 17 54 65 16 
51 61 18 47 55 16 67 81 25 49 59 19 53 63 19 
64 79 23 58 69 23 52 62 16 73 85 32 54 66 21 
54 65 20 44 53 14 54 66 19 51 59 20 60 83 26 
50 63 21 54 68 18 53 68 19 52 66 19 51 60 18 
48 59 16 54 64 20 65 80 24 62 72 23 72 82 30 
64 76 28 58 73 20 57 70 19 51 65 17 60 70 24 
48 57 15 61 73 17 61 76 21 52 61 19 54 69 23 
61 71 25 52 65 20 46 57 19 53 69 20 48 64 16 
52 67 17 55 65 19 52 68 20 61 68 27 70 79 30 
65 77 25 59 73 21 50 56 19 67 76 31 74 86 32 
40 58 16 54 71 22 53 65 19 58 72 17 47 59 14 
68 80 23 59 69 20 45 49 16 55 67 21 57 68 22 
50 61 20 43 51 17 50 60 17 51 61 19 59 75 23 
47 57 15 58 68 20 67 80 28 52 64 16 55 67 19 
57 69 21 58 74 23 63 81 27 58 72 25 48 59 15 
61 68 26 82 88 45 72 79 32 49 59 15 57 66 23 
55 69 21 57 67 21 62 76 25 59 68 24 54 69 18 
44 52 16 55 73 17 60 78 19 50 70 19 53 69 18 
54 71 23 59 74 21 57 73 19 47 57 15 52 68 21 
59 69 24 59 73 22 74 85 28 60 81 30 61 73 20 
82 90 38 48 58 17 76 87 35 64 75 24 64 75 27 
57 72 23 52 64 15 52 66 16 63 75 24 57 71 19 
52 66 19 56 72 19 49 60 15 57 65 23 61 80 19 
54 67 18 56 68 21 61 73 23 49 59 20 59 73 18 
54 64 20 48 58 15 61 76 29 56 69 21 65 77 26 
61 77 22 72 84 32 60 73 22 56 71 21 66 83 23 
52 62 20 64 76 28 53 65 20 62 78 19 53 63 18 
47 55 17 50 60 18 62 72 23 53 65 17 56 69 20 
47 58 13 62 73 24 58 70 17 66 83 26 69 87 21 
62 79 31 66 86 24 54 68 18 52 70 21 50 73 23 
50 62 19 66 77 24 61 71 26 66 82 23 52 67 16 
50 60 16 62 74 22 58 67 21 56 67 21 53 64 17 
49 58 20 60 69 21 51 65 21 59 70 22 62 72 26 
52 66 16 56 71 20 52 65 18 43 56 17 47 60 18 
48 63 17 62 78 22 76 96 28 62 76 24 54 67 19 
54 68 20 48 62 14 54 67 18 56 67 16 53 65 19 
59 72 20 60 70 21 52 62 21 55 71 17 50 64 18 
53 66 20 73 87 35 60 80 23 48 56 18 52 67 18 
52 74 18 55 70 16 55 69 21 59 74 19 54 67 23 
53 63 16 54 66 17 69 81 25 49 59 18 56 66 24 
75 87 39 56 69 20 54 64 16 63 73 20 54 65 17 
48 58 19 70 87 27 57 71 21 72 85 31 70 92 35 
46 60 16 53 65 16 76 93 32 53 69 16 57 71 17 
56 69 22 58 73 20 54 64 19 52 64 18 57 68 22 
55 65 22 52 68 16 58 74 20 66 85 25 55 68 17 
66 82 21 59 70 20 60 72 22 58 72 17 57 71 23 
53 62 23 62 79 17 57 69 22 50 63 17 47 57 15 
52 67 14 61 76 19 62 73 22 52 63 16 61 76 23 
56 65 21 62 77 24 56 69 21 54 68 19 57 71 20 
51 63 16 59 72 22 63 75 25 58 71 17 46 51 17 
54 65 20 59 69 20 63 74 20 56 66 24 53 62 20 
64 75 22 54 70 18 63 77 20 60 75 19 47 58 14 
64 74 31 78 90 34 43 53 16 53 69 18 57 72 15 
61 76 20 49 63 16 58 69 22 59 74 19 62 73 24 
50 59 18 57 72 18 51 60 17 51 60 17 64 76 22 
47 51 17 54 65 21 58 67 24 56 75 23 51 66 19 
62 76 23 44 53 15 45 54 17 51 63 17 50 64 16 
58 68 18 48 58 18 43 52 15 57 71 19 54 68 17 
56 70 19 56 67 21 64 76 25 64 74 27 62 67 28 
69 91 24 52 61 17 54 68 22 52 62 18 48 58 18 
47 62 17 55 65 24 64 76 23 63 80 26 55 68 20 
44 55 15 59 70 21 63 75 24 67 81 29 58 73 19 
53 68 15 69 86 27 86 93 45 53 59 24 54 65 19 
60 75 20 61 73 23 66 76 27 55 65 19 77 88 31 
64 74 24 54 69 19 60 71 24 55 69 21 60 72 24 
57 69 16 51 61 20 58 68 23 64 79 23 59 72 25 
52 65 19 51 64 16 49 64 16 65 80 25 55 64 19 
60 69 21 55 67 21 55 65 17 66 78 24 54 66 20 
51 66 14 49 62 19 63 80 21 52 63 15 55 62 22 
58 64 23 71 83 27 61 76 20 46 55 17 44 55 16 
60 76 23 47 52 19 68 79 27 56 74 19 54 67 17 
53 65 19 55 70 18 60 75 21 54 63 19 62 75 24 
44 53 17 59 69 23 62 79 22 48 56 17 55 71 22 
62 76 29 42 47 14 60 72 28 55 70 19 53 68 20 
67 84 22 56 68 19 56 67 23 60 75 21 69 82 29 
65 79 28 51 62 16 51 64 15 43 51 16 59 76 20 
63 72 25 62 73 23 54 68 17 61 84 25 52 66 18 
52 66 17 56 72 23 62 72 29 64 73 28 59 73 24 
58 67 22 50 62 14 52 62 17 60 70 25 55 65 19 
57 69 20 50 64 18 60 74 19 49 64 19 52 64 18 
59 75 21 55 65 22 52 64 20 70 86 27 65 76 26 
66 79 23 46 55 18 57 70 20 59 71 22 68 83 30 
61 76 24 63 78 34 55 68 22 53 67 21 60 69 27 
53 64 19 52 65 17 55 72 23 63 77 25 62 75 21 
63 74 22 56 71 18 62 77 19 56 72 22 51 63 18 
59 71 22 50 60 18 60 67 28 58 71 24 53 64 20 
51 62 18 51 64 17 53 61 21 47 55 14 48 58 16 
56 70 20 59 72 23 59 69 23 57 67 20 48 57 16 
51 63 15 51 63 14 60 77 22 54 66 17 73 92 28 
52 67 16 52 63 20 56 60 25 45 54 18 49 60 15 
49 56 19 47 58 12 56 72 20 77 103 41 49 63 14 
50 65 15 60 76 19 49 59 19 47 59 17 55 68 22 
56 71 20 62 78 22 49 57 21 64 74 26 55 68 24 
44 58 15 55 65 21 73 85 30 44 59 13 55 71 18 
44 50 15 44 54 13 49 59 18 58 72 19 60 74 21 
51 62 15 54 64 19 54 64 19 54 64 16 58 68 20 
55 67 21 53 66 18 46 59 17 54 68 20 58 71 24 
64 76 25 66 76 27 56 67 21 65 77 26 55 69 19 
57 67 21 56 66 21 53 63 17 49 64 21 53 63 21 
58 72 25 58 70 19 54 65 20 58 70 21 60 73 21 
56 70 20 63 76 25 48 59 17 53 63 19 71 83 27 
61 76 23 59 74 17 48 56 18 57 66 21 53 66 19 
50 60 16 75 87 33 63 77 26 59 74 21 55 67 21 
57 71 20 65 79 23 51 59 17 62 74 24 56 65 25 
60 75 25 54 67 15 54 68 21 60 76 19 51 61 16 
50 61 17 52 61 18 63 79 24 56 65 20 61 71 24 
50 64 18 50 58 23 54 66 25 59 71 22 69 83 27 
64 75 22 67 82 23 60 77 21 52 67 16 60 75 22 
69 83 26 51 62 20 69 80 31 69 80 31 50 59 16 
55 65 18 55 64 19 58 68 23 57 70 20 50 61 22 
58 69 24 47 57 22 53 63 19 53 67 19 57 72 18 
53 69 16 50 60 15 58 69 21 54 68 19 53 65 20 
57 72 17 61 73 25 53 65 21 58 70 21 59 73 21 
47 56 16 54 66 17 59 74 20 62 75 22 52 65 20 
64 74 26 51 61 20 55 71 21 60 76 21 53 66 20 
58 73 16 59 76 17 56 71 18 58 72 19 75 99 32 
60 71 18 53 65 19 59 74 23 53 68 17 48 57 13 
64 77 23 67 78 25 41 50 18 60 70 20 50 61 21 
58 68 24 76 97 26 71 80 31 57 67 21 45 55 14 
62 74 22 64 79 25 55 65 20 49 60 19 53 72 20 
71 85 27 72 82 31 67 80 28 57 67 22 58 73 18 
55 65 17 68 85 21 67 84 24 58 73 21 60 75 21 
46 56 18 61 75 22 50 63 19 49 59 20 46 57 14 
50 61 16 55 68 19 52 67 17 61 72 21 61 76 23 
60 70 25 56 70 20 53 67 16 59 70 19 59 74 17 
51 61 16 48 58 19 61 76 21 54 67 19 51 59 19 
56 68 20 60 74 22 62 80 22 56 71 18 64 76 24 
54 66 18 60 75 20 53 62 19 60 75 23 62 78 25 
57 67 22 62 73 23 67 76 30 50 63 20 53 64 16 
58 69 19 57 72 18 54 67 20 58 73 22 57 71 21 
60 72 23 49 60 17 47 58 14 56 66 21 63 78 29 
64 76 28 67 81 29 57 71 19 57 71 22 66 81 20 
48 64 16 50 60 15 47 58 16 46 56 14 56 71 15 
55 70 17 56 71 17 52 67 13 54 69 21 70 85 27 
63 78 25 68 77 31 53 66 20 63 77 19 50 65 18 
53 67 20 46 51 14 49 60 16 52 60 18 51 66 19 
64 73 23 62 74 25 50 64 19 54 67 19 55 71 19 
43 52 13 61 75 23 67 79 27 44 55 18 60 74 20 
47 57 18 57 71 20 54 65 19 72 80 35 61 77 19 
77 92 32 45 58 14 52 69 21 52 61 18 52 65 18 
61 74 24 68 85 29 67 79 27 53 62 22 59 72 22 
56 69 22 61 73 23 67 79 30 57 67 20 90 104 47 
56 69 22 49 62 14 49 61 17 51 61 19 52 68 17 
53 64 21 61 69 28 68 79 32 61 79 22 51 63 18 
67 90 30 63 76 22 68 78 36 71 79 29 76 89 36 
72 80 35 83 93 43 70 79 33 64 78 26 54 63 19 
57 66 23 73 85 33 69 80 31 53 62 20 55 71 16 
48 57 17 50 61 15 65 83 21 54 67 20 46 56 17 
52 61 18 54 70 21 65 80 26 59 74 20 50 60 20 
51 65 19 44 52 17 54 63 21 55 70 20 56 70 18 
71 86 24 54 65 18 47 57 19 50 60 17 52 64 20 
55 66 19 66 79 27 59 69 26 51 67 17 60 71 22 
51 61 16 64 78 24 63 77 23 60 70 22 60 75 24 
57 68 20 53 62 20 45 52 17 49 58 17 56 68 19 
43 51 16 64 80 22 52 62 20 56 66 24 59 71 27 
67 83 29 57 67 22 65 81 27 56 72 19 50 54 19 
54 66 20 58 69 18 65 72 27 54 68 19 58 76 19 
58 72 18 52 64 19 48 59 11 67 80 28 60 67 24 
65 73 29 54 61 21 46 57 16 53 65 19 48 60 15 
52 65 16 51 61 16 45 55 15 67 83 23 51 60 18 
62 79 21 61 79 21 47 56 19 56 68 18 46 56 15 
67 82 26 69 80 27 66 77 26 60 74 21 54 65 17 
64 79 22 66 79 19 71 87 26 60 75 27 66 83 25 
59 73 18 70 87 25 55 65 21 65 80 26 56 69 19 
69 79 29 56 62 21 56 70 19 61 73 20 74 89 31 
52 67 18 56 71 19 52 66 19 52 62 17 58 71 21 
51 58 16 53 64 18 58 71 21 60 72 25 55 67 17 
52 62 18 54 70 15 55 65 18 70 83 27 51 62 16 
56 63 23 56 67 19 56 73 16 56 65 20 58 77 18 
40 53 13 57 72 18 61 74 23 59 76 21 52 61 22 
58 70 21 67 79 25 55 66 22 51 57 21 63 78 22 
50 62 17 53 63 17 54 64 21 52 62 21 58 68 22 
60 71 23 51 67 21 57 71 19 54 63 19 62 75 24 
57 72 21 48 52 21 64 80 25 57 70 25 57 72 21 
51 66 15 56 75 16 50 63 16 61 76 23 72 87 27 
62 73 25 70 88 32 65 85 31 48 57 17 54 73 23 
60 71 18 53 67 16 57 70 16 55 71 20 61 75 22 
46 58 15 54 67 18 53 68 20 64 82 24 50 59 15 
52 61 18 52 67 18 49 59 20 54 64 24 57 70 20 
57 67 20 59 70 19 52 62 19 59 74 21 60 70 21 
50 58 18 54 65 21 55 66 20 39 47 12 50 60 18 
50 64 17 57 67 21 49 64 15 61 76 19 63 74 27 
56 69 19 48 64 21 68 90 28 60 73 28 68 81 28 
64 75 25 55 67 20 71 85 28 56 69 22 65 83 24 
69 80 26 64 80 22 60 75 21 52 63 20 56 68 16 
56 70 21 61 73 19 56 67 22 58 74 20 51 63 18 
55 67 19 55 67 15 56 65 23 57 72 18 46 56 16 
64 75 25 74 85 32 66 77 25 53 63 18 53 66 16 
53 62 17 53 63 19 61 72 20 46 54 18 50 65 14 
46 53 20 63 81 21 55 68 20 60 72 21 74 86 32 
66 79 24 52 65 21 50 63 20 57 72 18 48 58 17 
57 71 22 60 76 20 55 67 15 60 73 19 52 65 20 
56 67 20 57 73 18 56 65 24 51 63 19 48 61 17 
52 62 18 59 70 22 53 64 18 55 69 23 63 76 23 
68 78 29 54 66 21 62 75 23 55 68 21 47 57 17 
55 63 21 74 90 27 46 55 17 51 61 20 48 58 15 
52 61 17 59 75 16 44 54 14 55 66 19 62 70 30 
52 68 16 52 62 18 53 67 18 49 61 16 58 70 21 
49 57 18 53 65 19 59 70 21 54 65 21 69 81 27 
56 71 17 51 58 20 47 58 18 58 68 21 50 62 16 
57 70 18 46 55 16 59 71 21 51 61 21 58 69 21 
54 69 17 63 75 23 54 64 19 59 68 21 50 62 17 
71 89 25 56 66 21 55 66 21 47 55 17 61 77 18 
50 61 15 65 76 25 47 59 14 50 62 18 53 62 17 
50 66 19 50 60 18 68 82 31 63 78 21 71 88 27 
65 79 28 81 103 43 60 82 23 55 68 19 46 60 17 
54 66 20 56 67 21 55 68 17 54 65 17 43 54 15 
45 56 15 47 61 16 55 68 17 60 78 19 60 74 23 
63 81 30 54 69 27 60 71 24 79 95 33 76 93 34 
47 56 13 63 75 27 63 78 28 58 71 21 50 63 16 
46 56 16 57 70 19 50 63 20 52 65 17 64 76 25 
68 83 33 67 74 33 53 60 21 50 64 19 58 73 19 
53 63 18 48 59 16 62 74 26 51 63 20 54 66 22 
56 68 18 52 62 19 53 66 19 66 82 21 61 76 21 
48 58 15 56 68 19 58 74 19 55 73 21 46 59 14 
58 70 22 63 77 27 51 61 17 59 69 25 61 77 22 
58 69 19 52 67 19 56 66 20 73 86 30 63 79 22 
53 63 18 59 69 29 63 75 25 55 70 16 54 61 19 
55 66 19 51 60 17 53 63 20 57 72 18 70 87 24 
77 85 36 71 78 33 51 62 20 66 76 29 75 82 38 
58 69 22 58 67 22 60 75 20 63 77 21 54 68 17 
49 58 15 57 66 19 49 61 15 55 70 18 54 66 19 
59 71 21 43 51 17 74 81 35 77 86 41 79 91 37 
55 69 17 67 82 23 55 68 21 53 66 20 61 75 26 
60 68 26 48 59 14 52 68 17 54 69 19 53 63 19 
63 80 19 59 69 20 72 84 29 67 80 24 56 69 20 
60 71 27 85 101 37 68 82 24 65 79 24 65 77 27 
71 79 32 69 81 32 62 76 24 67 82 26 60 71 27 
54 68 20 55 68 18 53 64 19 61 77 20 54 65 22 
61 78 20 48 58 17 74 86 29 67 75 33 62 68 26 
56 68 15 46 56 16 63 79 21 50 58 19 57 68 19 
60 76 22 68 77 32 59 76 17 63 79 21 51 61 16 
47 62 15 54 66 17 60 68 24 55 67 19 61 76 25 
50 59 19 59 73 22 68 84 26 64 75 26 65 82 22 
61 77 23 55 64 22 66 82 23 46 56 16 50 62 20 
50 64 18 61 71 22 50 62 17 41 49 13 50 60 16 
56 71 19 53 66 20 54 69 18 45 59 16 50 60 15 
56 66 23 64 78 23 64 74 27 56 66 21 57 73 21 
54 63 23 55 74 19 56 65 19 55 68 18 60 78 23 
53 65 20 51 66 18 76 89 30 65 77 23 63 72 28 
68 79 29 63 77 26 52 61 19 59 71 22 61 73 25 
42 51 16 50 60 15 58 71 22 59 78 23 71 82 28 
55 68 20 62 71 24 58 69 21 54 65 19 67 83 33 
53 62 18 55 71 21 48 59 17 55 69 22 61 71 23 
52 64 18 50 65 17 56 65 18 47 59 16 49 61 14 
53 71 16 45 56 15 54 73 15 58 73 16 61 77 19 
47 56 14 59 76 18 51 62 16 52 66 16 66 77 23 
58 69 20 60 75 21 50 61 17 51 64 18 51 65 20 
60 76 21 57 69 21 53 65 19 55 67 20 65 81 24 
62 75 25 67 80 29 63 78 21 58 70 25 56 68 19 
54 64 19 45 57 15 47 54 19 47 61 18 63 74 23 
74 85 31 58 72 22 55 66 16 59 73 20 58 72 21 
59 72 23 52 63 18 62 78 22 47 58 16 49 64 18 
53 63 18 36 47 11 57 69 21 63 74 26 61 71 25 
78 90 33 59 74 18 62 74 24 63 73 27 68 80 29 
44 55 15 54 67 17 63 78 20 55 66 18 58 75 22 
54 64 21 50 59 16 59 72 22 70 81 36 45 55 14 
57 71 22 51 63 18 61 73 20 82 94 34 56 73 17 
51 63 16 53 65 19 73 84 32 75 87 29 62 74 27 
53 65 18 58 68 24 69 80 32 62 72 24 52 67 18 
65 79 28 55 73 21 57 69 21 62 73 21 56 66 19 
79 95 33 60 73 28 57 71 21 55 69 24 61 71 23 
59 71 22 54 69 21 53 63 16 55 69 20 52 64 20 
54 68 20 63 78 22 61 80 19 61 72 22 52 64 19 
54 72 24 53 67 18 66 78 27 59 73 21 62 78 18 
57 71 23 70 79 27 55 61 20 69 85 31 57 64 21 
49 64 19 66 76 28 55 68 22 54 64 22 56 73 19 
54 65 19 45 55 15 48 58 13 64 76 21 52 65 13 
50 62 15 63 75 22 58 67 19 60 74 20 53 63 22 
56 64 23 70 77 34 54 67 20 57 67 19 57 70 21 
47 54 18 60 70 19 55 68 19 56 66 24 70 82 30 
57 68 20 65 76 25 50 63 15 50 60 20 47 58 12 
50 63 18 45 55 13 59 75 20 45 58 16 58 72 21 
58 72 18 58 72 19 65 77 26 80 86 43 63 76 27 
59 66 27 48 56 15 46 56 18 59 69 22 54 64 17 
49 59 16 45 56 14 51 61 18 54 66 19 53 64 17 
51 60 20 52 65 16 59 74 19 52 67 18 51 67 22 
59 73 21 66 80 25 56 74 20 65 78 25 74 95 38 
60 81 23 68 80 25 59 72 20 53 63 16 59 69 22 
59 71 21 56 68 22 57 68 21 60 78 20 60 69 26 
60 73 25 80 98 34 57 68 25 61 74 26 53 63 20 
71 82 27 73 90 29 61 76 21 58 70 24 57 68 19 
52 63 15 68 82 23 55 65 22 59 77 18 49 61 15 
53 67 16 61 79 20 54 66 17 63 75 23 45 57 15 
46 59 13 47 58 13 49 60 16 57 71 18 53 63 16 
58 71 19 61 71 28 49 59 17 63 76 26 47 58 15 
56 71 23 56 72 19 53 60 21 63 75 22 60 74 26 
54 70 19 55 69 20 59 70 27 54 64 19 51 65 20 
64 77 21 63 73 27 57 69 23 61 77 20 54 67 20 
40 47 14 59 70 19 65 76 30 61 72 21 56 68 21 
54 67 20 54 69 19 73 87 31 59 73 20 48 61 15 
60 69 27 66 73 28 64 76 25 51 66 18 62 74 22 
63 77 25 64 81 28 56 70 18 76 87 37 67 73 32 
67 76 26 48 58 17 68 79 26 60 73 20 48 59 16 
67 83 24 64 73 24 59 70 23 47 61 18 48 58 19 
80 93 36 71 83 29 59 68 25 50 73 23 54 69 22 
53 67 16 54 67 19 48 58 18 50 57 16 64 70 30 
74 83 37 65 80 22 64 80 21 63 74 26 66 78 24 
58 68 24 61 77 17 60 72 16 58 72 20 62 77 22 
55 65 18 50 61 22 61 73 25 58 73 19 67 79 29 
62 73 21 53 62 15 59 73 19 60 73 23 54 65 21 
48 62 21 40 55 15 48 59 17 55 71 18 58 73 21 
54 69 15 65 81 26 63 78 21 53 59 21 71 77 36 
68 82 27 54 63 22 53 63 19 62 74 20 52 61 22 
50 60 20 61 80 20 60 74 22 61 74 22 60 73 23 
54 65 19 65 85 26 50 63 14 57 72 18 55 74 20 
54 66 20 51 65 19 44 51 15 48 58 21 61 76 21 
48 58 13 51 63 19 55 70 14 70 82 30 57 69 21 
65 75 28 56 71 18 60 74 18 60 73 18 55 69 21 
58 73 19 72 87 24 55 67 19 47 58 16 53 64 19 
64 76 27 57 69 22 38 43 14 61 74 21 54 66 22 
50 60 18 49 59 18 49 59 16 44 52 17 54 72 17 
67 79 28 46 55 16 50 66 17 70 86 30 43 59 18 
51 72 24 47 63 18 52 66 19 56 65 21 46 55 16 
46 57 13 66 71 29 69 77 30 55 68 20 47 57 17 
50 61 18 55 67 19 56 72 22 56 71 17 61 76 22 
56 68 27 51 64 18 61 73 21 57 70 18 51 61 14 
57 72 18 56 71 17 62 76 23 59 70 22 56 68 20 
60 71 24 62 78 26 53 65 19 60 75 19 54 68 20 
65 82 23 54 65 19 60 70 25 57 73 21 52 63 21 
66 78 27 61 77 19 69 82 26 56 67 18 54 70 16 
47 59 14 52 62 16 52 70 22 59 75 22 57 70 20 
57 70 20 55 70 16 58 71 24 55 66 19 54 68 17 
57 67 21 59 73 25 62 74 24 63 75 24 52 62 17 
52 64 18 57 68 22 60 72 24 61 70 22 61 80 17 
56 66 20 69 81 26 60 65 24 59 75 19 54 69 16 
55 68 16 63 77 23 59 74 21 61 75 19 55 64 19 
65 73 31 70 81 27 59 66 23 58 68 19 61 76 22 
44 54 15 51 60 17 63 82 22 58 74 18 61 79 26 
55 76 22 53 69 19 52 63 17 57 68 21 58 70 20 
75 88 33 65 77 26 53 64 20 44 53 15 60 75 24 
52 63 20 50 60 18 59 74 25 58 72 18 60 73 23 
56 70 18 59 75 22 45 51 17 51 62 16 52 61 19 
64 76 24 58 74 22 81 93 36 57 67 21 57 71 23 
53 63 17 65 82 22 49 62 14 47 57 18 56 68 20 
52 65 14 54 64 18 59 73 19 61 77 21 54 67 18 
48 61 16 54 69 16 65 78 23 58 68 23 51 67 19 
54 64 19 55 71 19 44 53 12 79 99 32 80 91 37 
50 62 17 56 69 19 56 69 15 52 62 17 54 76 22 
51 67 19 62 75 25 56 68 13 63 77 26 51 62 16 
67 75 29 54 65 25 55 65 17 53 68 16 53 62 19 
72 81 34 58 72 17 47 54 16 57 67 24 52 61 18 
52 64 20 65 77 25 63 70 24 64 77 24 50 63 18 
54 65 19 59 72 22 52 64 19 58 79 22 69 86 19 
49 57 17 61 77 26 50 65 16 56 66 23 57 71 19 
53 64 19 65 79 30 51 63 15 70 82 30 45 55 14 
44 54 10 48 60 16 56 68 16 62 75 23 66 74 25 
50 60 20 54 64 18 56 68 20 53 65 20 54 68 20 
58 74 19 57 75 18 57 69 24 54 68 18 52 65 17 
52 65 16 71 83 32 48 62 21 61 72 20 42 51 15 
65 80 23 62 76 22 58 76 22 56 66 19 60 73 22 
53 68 17 55 70 18 51 64 16 67 78 23 54 64 17 
50 60 19 63 76 23 52 64 17 56 66 19 51 62 17 
45 56 15 59 68 23 66 80 24 63 84 20 54 64 19 
52 63 17 57 70 23 62 73 26 54 64 20 54 65 22 
79 89 37 48 61 16 42 50 13 42 55 11 58 70 20 
66 75 30 57 68 21 60 70 26 61 74 28 59 69 28 
56 63 23 55 65 21 51 60 22 51 65 16 61 77 21 
62 77 27 41 51 11 67 88 22 55 65 20 75 84 32 
50 60 22 54 67 19 50 57 19 54 70 19 57 68 20 
48 62 20 47 61 16 56 67 18 58 69 18 51 58 21 
55 67 16 60 78 22 58 70 16 50 64 16 62 74 22 
70 75 32 66 81 30 65 78 34 46 68 17 56 68 22 
56 74 19 53 67 19 63 78 28 66 78 30 47 59 21 
58 69 19 66 82 27 47 57 16 60 72 20 47 58 20 
55 70 20 57 73 20 61 76 22 59 75 20 55 67 16 
58 74 19 60 77 30 49 62 16 57 70 21 42 49 16 
54 64 23 51 65 15 58 68 23 52 71 17 51 63 16 
53 68 17 60 69 23 69 73 36 79 87 39 57 68 21 
53 62 23 55 68 18 42 52 14 50 64 19 52 65 15 
54 63 18 52 63 18 54 64 17 53 63 16 51 60 18 
54 67 20 82 99 39 55 65 19 67 76 28 59 73 18 
57 76 18 51 60 17 50 66 18 54 66 16 53 67 18 
54 63 19 68 85 22 56 71 16 50 62 17 52 62 19 
49 65 15 52 61 18 64 79 27 54 68 18 59 74 16 
43 59 14 54 68 15 53 65 15 62 76 20 70 80 30 
56 69 23 50 60 18 72 82 31 56 68 19 66 82 22 
55 68 16 43 53 16 47 58 16 48 59 16 56 66 19 
54 65 17 46 59 17 59 78 22 62 71 21 55 66 18 
50 60 18 58 67 24 57 72 21 51 61 17 50 64 17 
56 68 19 50 63 17 49 59 11 50 60 14 63 79 21 
54 64 17 46 62 15 56 67 20 63 74 25 52 63 19 
54 66 14 53 65 17 68 81 24 47 61 15 54 68 18 
53 63 17 48 61 18 53 66 20 54 66 18 52 65 18 
53 72 18 50 63 16 51 62 18 76 84 31 74 86 32 
65 76 23 64 76 26 56 66 19 54 61 18 60 76 23 
58 73 21 49 58 18 56 68 19 47 55 15 54 64 19 
62 76 20 56 68 17 60 72 25 61 69 24 77 90 31 
62 72 25 48 61 18 53 72 20 68 79 25 63 77 25 
52 62 17 63 79 27 57 69 25 53 59 19 52 62 18 
60 72 25 68 81 25 62 72 23 60 74 21 59 72 27 
50 63 18 54 65 18 56 72 21 61 68 24 56 70 24 
47 61 15 59 75 24 58 68 25 54 66 22 55 68 17 
69 76 31 59 74 20 78 92 32 57 67 21 58 70 16 
64 75 24 54 65 20 67 77 29 51 62 22 84 98 35 
76 84 38 58 69 25 59 69 27 53 67 20 54 66 18 
60 77 21 55 65 19 59 75 22 58 70 19 53 62 21 
46 56 16 63 79 21 56 68 17 48 61 17 47 60 15 
44 57 13 47 58 12 73 77 40 72 84 29 51 65 19 
52 65 18 54 68 26 51 64 15 46 60 17 51 65 17 
54 64 18 59 72 20 69 78 32 57 70 24 74 82 34 
59 74 20 60 73 22 59 69 23 48 62 19 56 69 18 
54 66 18 51 61 20 54 70 18 57 70 21 53 66 16 
52 65 18 45 55 14 50 60 16 53 67 15 47 57 15 
65 78 21 52 62 18 54 66 17 52 61 20 63 70 28 
74 86 36 61 74 23 57 69 21 73 89 30 64 71 29 
45 55 17 56 72 19 61 77 21 45 59 14 59 71 24 
54 68 19 55 66 19 46 56 12 48 60 14 51 64 15 
39 48 14 60 70 20 44 53 13 67 78 25 63 75 23 
45 54 17 68 81 29 80 92 34 62 73 22 54 69 17 
54 66 19 44 55 12 50 62 16 50 62 17 58 64 27 
68 78 32 50 62 15 59 74 16 55 68 18 58 73 18 
43 57 18 60 76 20 56 71 17 52 66 19 53 63 20 
50 61 15 60 70 18 42 55 16 49 61 14 60 77 22 
53 66 22 53 61 19 69 77 33 59 71 20 55 71 16 
56 67 21 61 74 26 72 85 30 59 66 24 51 63 22 
57 64 25 62 77 25 68 80 29 75 83 35 71 83 32 
57 72 22 51 61 17 54 66 19 54 64 22 60 72 20 
58 68 19 50 63 15 59 70 23 59 70 22 46 61 15 
62 81 22 53 67 18 56 71 18 56 66 18 56 67 19 
54 66 20 58 70 19 68 84 25 45 51 14 65 81 27 
59 74 25 55 70 19 62 79 20 50 60 18 47 56 14 
54 62 19 57 73 20 57 74 23 47 57 17 57 69 20 
63 71 32 93 93 49 62 76 20 57 64 24 74 83 32 
55 68 22 55 69 18 60 78 22 44 53 16 48 58 18 
51 61 18 53 64 18 51 63 18 57 67 20 60 73 21 
62 74 22 54 64 20 49 61 19 55 65 17 51 63 19 
57 68 24 58 73 21 58 68 23 65 76 25 67 74 31 
65 75 27 53 62 18 64 76 21 86 95 41 72 78 32 
71 85 31 67 79 28 54 65 17 57 72 22 54 70 23 
66 81 22 60 77 19 60 73 19 42 56 14 48 57 14 
64 83 21 50 59 16 55 70 22 46 64 19 58 70 20 
54 67 17 55 66 20 46 57 17 57 68 22 64 76 24 
67 79 27 53 64 21 45 55 19 67 85 25 60 78 19 
52 65 20 50 65 16 50 64 21 59 75 15 75 82 36 
57 73 23 43 50 14 70 85 26 61 76 23 45 55 13 
52 63 18 56 72 20 55 68 19 52 63 18 60 75 21 
59 74 19 51 65 20 53 64 23 65 82 23 54 65 21 
53 63 18 60 79 24 46 61 14 46 56 19 77 85 35 
59 75 23 64 79 24 64 77 22 54 66 18 53 66 18 
59 78 20 54 64 20 56 68 21 65 78 25 67 80 22 
57 71 21 64 78 26 71 87 26 63 76 16 67 83 30 
53 69 15 64 75 22 56 72 19 55 68 20 53 63 19 
60 73 23 57 71 19 60 75 23 54 69 18 64 81 24 
60 70 27 63 75 23 56 68 14 55 67 21 58 71 21 
70 87 25 59 74 19 53 64 21 50 61 17 54 67 17 
42 51 16 54 64 16 48 56 16 62 80 18 54 66 20 
49 63 17 47 55 19 49 63 15 67 79 29 66 78 28 
65 75 30 68 80 34 61 76 25 61 73 19 55 67 19 
60 75 26 56 66 21 51 63 15 49 58 15 64 85 21 
55 68 17 46 55 17 62 78 24 42 51 16 64 78 26 
77 90 42 58 70 18 47 60 17 53 66 19 53 64 17 
55 70 16 58 72 20 66 78 30 61 71 26 57 70 21 
52 61 19 49 60 18 69 86 22 64 78 27 75 100 38 
60 79 24 45 59 14 65 81 23 58 69 23 67 77 28 
71 80 32 71 83 31 49 60 14 45 56 18 58 70 19 
61 74 27 53 67 19 52 61 19 51 61 16 66 74 30 
65 75 28 58 71 29 64 82 23 55 68 18 53 64 18 
57 70 21 60 75 20 54 67 21 57 72 20 53 63 18 
48 59 16 55 68 18 71 91 24 50 59 16 54 68 22 
52 62 16 55 65 19 58 74 19 60 77 19 61 76 19 
59 77 19 44 57 16 55 67 19 52 65 19 57 71 19 
60 75 21 59 75 19 62 70 26 56 66 22 52 62 20 
64 76 24 60 72 21 50 57 19 55 65 23 65 77 23 
42 58 16 53 76 22 56 66 23 70 81 30 49 63 15 
55 66 19 55 70 20 46 57 15 43 50 13 55 69 17 
69 83 26 60 77 23 60 68 22 57 71 20 50 64 19 
51 59 19 55 65 22 56 66 22 50 61 17 60 71 23 
41 48 15 55 66 16 55 66 22 52 64 17 52 66 18 
51 64 17 72 89 23 63 76 20 48 59 18 61 72 23 
69 86 25 53 68 15 45 57 16 51 61 20 56 71 16 
56 69 20 60 73 21 62 77 21 57 66 21 57 71 21 
51 65 20 61 76 23 44 51 17 57 71 21 58 76 24 
49 58 17 50 64 19 54 65 15 55 69 20 61 70 21 
53 67 19 56 71 18 57 72 18 65 80 22 48 58 20 
55 69 18 58 68 27 65 78 26 62 76 23 57 71 23 
53 67 19 58 68 20 52 66 17 50 58 18 62 78 20 
53 65 16 52 69 17 61 71 21 49 63 19 63 79 21 
53 62 19 56 66 18 62 69 24 63 75 27 56 67 20 
52 66 18 45 55 18 55 67 22 61 76 21 59 68 23 
52 65 17 58 74 21 55 69 19 46 57 18 55 66 20 
49 60 14 60 73 20 50 63 18 61 73 22 52 65 18 
59 71 18 53 66 21 54 60 21 52 65 17 52 62 21 
48 54 18 58 74 22 54 64 20 54 64 18 58 72 20 
57 70 18 54 70 21 66 80 26 58 71 23 54 69 21 
57 72 22 53 63 18 61 72 23 52 58 19 62 67 28 
48 59 17 55 66 18 66 78 31 63 75 23 59 69 28 
45 55 17 58 72 19 50 62 17 53 63 18 47 57 15 
59 73 25 60 71 24 46 56 18 51 65 17 53 68 17 
55 69 17 52 63 15 63 78 23 50 63 12 48 60 18 
55 72 21 56 69 21 54 69 19 54 71 19 68 83 25 
60 76 19 53 66 17 49 60 17 54 63 19 62 77 21 
56 68 22 55 67 18 56 72 19 54 64 18 55 67 18 
50 59 19 51 62 18 48 60 19 59 71 20 55 66 24 
55 67 18 52 64 19 57 67 21 51 63 18 53 63 18 
53 64 20 50 60 17 57 75 19 54 68 18 50 60 16 
45 59 15 58 72 22 53 63 16 53 64 20 63 79 24 
52 67 16 52 63 19 61 72 22 67 78 29 55 66 24 
65 77 24 53 70 19 56 66 17 54 71 21 55 65 20 
63 75 26 58 75 19 59 69 21 47 59 16 55 67 19 
76 91 33 59 75 25 57 68 21 48 56 17 66 76 30 
48 58 16 55 65 21 58 73 19 71 80 29 57 67 23 
60 69 25 57 72 23 55 66 19 57 68 21 67 82 24 
55 64 21 69 84 25 54 67 16 54 63 20 53 68 18 
61 72 20 62 78 22 53 62 22 48 63 19 64 76 24 
52 63 21 53 59 26 76 83 36 55 71 19 52 67 17 
67 82 24 53 69 14 70 90 27 68 90 36 60 75 19 
54 64 21 55 65 23 55 66 18 52 66 20 52 65 16 
55 67 23 73 88 29 56 67 20 55 64 16 59 75 20 
62 73 18 47 62 16 54 65 20 52 65 19 50 60 15 
44 54 16 55 71 21 51 59 17 49 56 21 55 65 19 
56 67 19 54 69 18 52 68 12 52 62 19 65 80 23 
56 68 18 55 65 19 64 77 21 60 67 24 68 80 25 
55 67 19 54 61 21 52 63 21 62 77 23 50 60 15 
58 70 18 54 69 19 50 61 17 51 61 17 53 70 17 
49 58 15 67 81 25 63 73 21 46 57 19 56 67 21 
51 64 18 49 60 14 46 54 16 60 78 22 50 62 18 
53 67 20 50 64 14 50 63 19 64 78 22 59 66 25 
55 63 24 65 72 30 54 66 21 66 84 24 62 74 25 
63 73 21 56 68 19 54 64 22 62 73 21 46 57 17 
56 70 20 55 69 15 47 57 17 61 77 20 56 67 19 
50 63 19 40 49 11 64 76 27 62 78 23 47 57 16 
60 72 22 54 64 21 48 59 18 55 67 19 53 64 20 
55 68 20 51 62 18 52 63 18 54 68 20 53 67 18 
58 70 22 59 73 22 70 80 32 60 74 22 61 75 23 
57 68 19 62 74 24 67 78 28 58 69 22 59 71 23 
52 63 19 53 64 19 58 70 20 56 67 21 55 69 21 
56 68 20 51 61 19 52 63 20 55 68 20 57 70 20 
60 74 20 60 70 21 53 64 20 49 57 18 52 63 19 
56 67 19 54 65 22 54 67 19 56 70 19 56 68 20 
53 67 18 55 67 21 62 76 22 56 67 21 57 69 21 
56 68 22 56 69 19 60 74 21 60 73 23 59 74 25 
61 75 22 56 67 20 61 74 24 56 67 23 65 77 27 
51 61 20 50 61 18 52 62 19 55 68 20 54 67 20 
58 72 20 62 76 22 55 66 19 50 61 19 52 63 20 
52 65 19 